<svg width="1050" height="258" viewBox="0 0 1050 258" fill="none" xmlns="http://www.w3.org/2000/svg">
<rect x="66" y="137" width="133" height="120.973" rx="15" fill="#181717"/>
<path d="M135.541 220.272C131.829 220.272 128.608 219.653 125.877 218.416C123.147 217.136 121.035 215.195 119.541 212.592C118.048 209.947 117.301 206.576 117.301 202.48V176.432C117.301 175.963 117.451 175.579 117.749 175.28C118.048 174.981 118.411 174.832 118.837 174.832H124.661C125.131 174.832 125.493 174.981 125.749 175.28C126.048 175.579 126.197 175.963 126.197 176.432V202.48C126.197 205.979 127.029 208.581 128.693 210.288C130.357 211.952 132.64 212.784 135.541 212.784C138.443 212.784 140.704 211.952 142.325 210.288C143.989 208.581 144.821 205.979 144.821 202.48V176.432C144.821 175.963 144.971 175.579 145.269 175.28C145.568 174.981 145.952 174.832 146.421 174.832H152.181C152.651 174.832 153.013 174.981 153.269 175.28C153.568 175.579 153.717 175.963 153.717 176.432V202.48C153.717 206.576 152.971 209.947 151.477 212.592C150.027 215.195 147.936 217.136 145.205 218.416C142.517 219.653 139.296 220.272 135.541 220.272Z" fill="#A5A5A5"/>
<rect x="209" y="137" width="133" height="120.973" rx="15" fill="#181717"/>
<path d="M262.221 219.632C261.795 219.632 261.432 219.483 261.133 219.184C260.835 218.885 260.685 218.523 260.685 218.096V176.432C260.685 175.963 260.835 175.579 261.133 175.28C261.432 174.981 261.795 174.832 262.221 174.832H279.373C282.701 174.832 285.603 175.365 288.077 176.432C290.552 177.456 292.472 179.035 293.837 181.168C295.203 183.259 295.885 185.883 295.885 189.04C295.885 192.24 295.203 194.885 293.837 196.976C292.472 199.024 290.552 200.56 288.077 201.584C285.603 202.608 282.701 203.12 279.373 203.12H269.837V218.096C269.837 218.523 269.688 218.885 269.389 219.184C269.133 219.483 268.771 219.632 268.301 219.632H262.221ZM269.709 196.016H279.053C281.528 196.016 283.427 195.44 284.749 194.288C286.072 193.093 286.733 191.344 286.733 189.04C286.733 186.907 286.115 185.2 284.877 183.92C283.64 182.597 281.699 181.936 279.053 181.936H269.709V196.016Z" fill="#A5A5A5"/>
<rect x="352" y="137" width="133" height="120.973" rx="15" fill="#181717"/>
<path d="M405.221 219.632C404.795 219.632 404.432 219.483 404.133 219.184C403.835 218.885 403.685 218.523 403.685 218.096V176.368C403.685 175.941 403.835 175.579 404.133 175.28C404.432 174.981 404.795 174.832 405.221 174.832H411.173C411.6 174.832 411.963 174.981 412.261 175.28C412.56 175.579 412.709 175.941 412.709 176.368V212.016H432.997C433.467 212.016 433.851 212.165 434.149 212.464C434.448 212.763 434.597 213.147 434.597 213.616V218.096C434.597 218.523 434.448 218.885 434.149 219.184C433.851 219.483 433.467 219.632 432.997 219.632H405.221Z" fill="#A5A5A5"/>
<rect x="495" y="137" width="133" height="120.973" rx="15" fill="#181717"/>
<path d="M563.901 220.272C560.104 220.272 556.84 219.653 554.109 218.416C551.379 217.136 549.245 215.195 547.709 212.592C546.173 209.947 545.341 206.661 545.213 202.736C545.171 200.901 545.149 199.088 545.149 197.296C545.149 195.504 545.171 193.669 545.213 191.792C545.341 187.909 546.195 184.667 547.773 182.064C549.352 179.461 551.507 177.499 554.237 176.176C557.011 174.853 560.232 174.192 563.901 174.192C567.571 174.192 570.792 174.853 573.565 176.176C576.339 177.499 578.515 179.461 580.093 182.064C581.672 184.667 582.525 187.909 582.653 191.792C582.739 193.669 582.781 195.504 582.781 197.296C582.781 199.088 582.739 200.901 582.653 202.736C582.525 206.661 581.693 209.947 580.157 212.592C578.621 215.195 576.467 217.136 573.693 218.416C570.963 219.653 567.699 220.272 563.901 220.272ZM563.901 212.912C566.675 212.912 568.936 212.101 570.685 210.48C572.435 208.816 573.373 206.128 573.501 202.416C573.587 200.539 573.629 198.811 573.629 197.232C573.629 195.611 573.587 193.883 573.501 192.048C573.416 189.573 572.947 187.568 572.093 186.032C571.283 184.453 570.173 183.323 568.765 182.64C567.357 181.915 565.736 181.552 563.901 181.552C562.109 181.552 560.509 181.915 559.101 182.64C557.693 183.323 556.563 184.453 555.709 186.032C554.899 187.568 554.451 189.573 554.365 192.048C554.323 193.883 554.301 195.611 554.301 197.232C554.301 198.811 554.323 200.539 554.365 202.416C554.493 206.128 555.432 208.816 557.181 210.48C558.931 212.101 561.171 212.912 563.901 212.912Z" fill="#A5A5A5"/>
<rect x="638" y="137" width="133" height="120.973" rx="15" fill="#181717"/>
<path d="M686.933 219.632C686.592 219.632 686.272 219.504 685.973 219.248C685.717 218.992 685.589 218.672 685.589 218.288C685.589 218.117 685.632 217.925 685.717 217.712L701.141 176.432C701.269 176.005 701.504 175.642 701.845 175.344C702.229 175.002 702.741 174.832 703.381 174.832H710.357C710.997 174.832 711.488 175.002 711.829 175.344C712.171 175.642 712.427 176.005 712.597 176.432L728.021 217.712C728.064 217.925 728.085 218.117 728.085 218.288C728.085 218.672 727.957 218.992 727.701 219.248C727.445 219.504 727.147 219.632 726.805 219.632H721.237C720.64 219.632 720.192 219.504 719.893 219.248C719.637 218.949 719.467 218.672 719.381 218.416L716.373 210.608H697.365L694.357 218.416C694.272 218.672 694.08 218.949 693.781 219.248C693.525 219.504 693.099 219.632 692.501 219.632H686.933ZM699.605 203.248H714.133L706.837 183.472L699.605 203.248Z" fill="#A5A5A5"/>
<rect x="781" y="137" width="133" height="120.973" rx="15" fill="#181717"/>
<path d="M834.221 219.632C833.795 219.632 833.432 219.483 833.133 219.184C832.835 218.885 832.685 218.523 832.685 218.096V176.432C832.685 175.963 832.835 175.579 833.133 175.28C833.432 174.981 833.795 174.832 834.221 174.832H849.837C854.147 174.832 857.688 175.493 860.461 176.816C863.277 178.139 865.389 180.101 866.797 182.704C868.248 185.307 868.995 188.485 869.037 192.24C869.123 194.117 869.165 195.781 869.165 197.232C869.165 198.683 869.123 200.325 869.037 202.16C868.952 206.128 868.227 209.413 866.861 212.016C865.496 214.576 863.427 216.496 860.653 217.776C857.923 219.013 854.424 219.632 850.157 219.632H834.221ZM841.581 212.272H849.837C852.227 212.272 854.168 211.931 855.661 211.248C857.155 210.565 858.243 209.477 858.925 207.984C859.651 206.448 860.035 204.443 860.077 201.968C860.12 200.688 860.141 199.579 860.141 198.64C860.184 197.659 860.184 196.699 860.141 195.76C860.141 194.779 860.12 193.669 860.077 192.432C859.992 188.933 859.117 186.352 857.453 184.688C855.789 183.024 853.144 182.192 849.517 182.192H841.581V212.272Z" fill="#A5A5A5"/>
<rect y="1" width="133" height="120.973" rx="15" fill="#181717"/>
<path d="M63.384 84C62.9573 84 62.5947 83.8507 62.296 83.552C61.9973 83.2533 61.848 82.8907 61.848 82.464V47.072H50.008C49.5813 47.072 49.2187 46.9227 48.92 46.624C48.6213 46.3253 48.472 45.9627 48.472 45.536V40.8C48.472 40.3307 48.6213 39.9467 48.92 39.648C49.2187 39.3493 49.5813 39.2 50.008 39.2H82.648C83.1173 39.2 83.5013 39.3493 83.8 39.648C84.0987 39.9467 84.248 40.3307 84.248 40.8V45.536C84.248 45.9627 84.0987 46.3253 83.8 46.624C83.5013 46.9227 83.1173 47.072 82.648 47.072H70.872V82.464C70.872 82.8907 70.7227 83.2533 70.424 83.552C70.1253 83.8507 69.7413 84 69.272 84H63.384Z" fill="#A5A5A5"/>
<rect x="143" y="1" width="133" height="120.973" rx="15" fill="#181717"/>
<path d="M192.695 83.6318C192.268 83.6318 191.906 83.5038 191.607 83.2478C191.308 82.9492 191.159 82.5652 191.159 82.0958V40.4318C191.159 39.9625 191.308 39.5785 191.607 39.2798C191.906 38.9812 192.268 38.8318 192.695 38.8318H198.519C198.988 38.8318 199.351 38.9812 199.607 39.2798C199.906 39.5785 200.055 39.9625 200.055 40.4318V56.9438H218.935V40.4318C218.935 39.9625 219.084 39.5785 219.383 39.2798C219.682 38.9812 220.044 38.8318 220.471 38.8318H226.231C226.7 38.8318 227.084 38.9812 227.383 39.2798C227.682 39.5785 227.831 39.9625 227.831 40.4318V82.0958C227.831 82.5225 227.682 82.8852 227.383 83.1838C227.084 83.4825 226.7 83.6318 226.231 83.6318H220.471C220.044 83.6318 219.682 83.4825 219.383 83.1838C219.084 82.8852 218.935 82.5225 218.935 82.0958V64.9438H200.055V82.0958C200.055 82.5225 199.906 82.8852 199.607 83.1838C199.351 83.4825 198.988 83.6318 198.519 83.6318H192.695Z" fill="#A5A5A5"/>
<rect x="286" y="1" width="133" height="120.973" rx="15" fill="#181717"/>
<path d="M339.221 83.6318C338.795 83.6318 338.432 83.4825 338.133 83.1838C337.835 82.8852 337.685 82.5225 337.685 82.0958V40.4318C337.685 39.9625 337.835 39.5785 338.133 39.2798C338.432 38.9812 338.795 38.8318 339.221 38.8318H367.381C367.851 38.8318 368.235 38.9812 368.533 39.2798C368.832 39.5785 368.981 39.9625 368.981 40.4318V44.6558C368.981 45.0825 368.832 45.4452 368.533 45.7438C368.235 46.0425 367.851 46.1918 367.381 46.1918H346.325V57.5198H365.973C366.443 57.5198 366.827 57.6692 367.125 57.9678C367.424 58.2238 367.573 58.5865 367.573 59.0558V63.0238C367.573 63.4932 367.424 63.8772 367.125 64.1758C366.827 64.4318 366.443 64.5598 365.973 64.5598H346.325V76.2718H367.893C368.363 76.2718 368.747 76.4212 369.045 76.7198C369.344 77.0185 369.493 77.4025 369.493 77.8718V82.0958C369.493 82.5225 369.344 82.8852 369.045 83.1838C368.747 83.4825 368.363 83.6318 367.893 83.6318H339.221Z" fill="#A5A5A5"/>
<rect x="429" y="2" width="133" height="120.973" rx="15" fill="#181717"/>
<rect x="572" width="133" height="120.973" rx="15" fill="#181717"/>
<rect x="715" width="133" height="120.973" rx="15" fill="#181717"/>
<rect x="929" y="94.4609" width="119.502" height="137.989" rx="15" transform="rotate(-0.220885 929 94.4609)" fill="#181717"/>
<rect x="858" y="1" width="191" height="118" rx="15" fill="#181717"/>
<path d="M916.448 68C916.288 68 916.152 67.944 916.04 67.832C915.928 67.72 915.872 67.584 915.872 67.424V51.8C915.872 51.624 915.928 51.48 916.04 51.368C916.152 51.256 916.288 51.2 916.448 51.2H927.008C927.184 51.2 927.328 51.256 927.44 51.368C927.552 51.48 927.608 51.624 927.608 51.8V53.384C927.608 53.544 927.552 53.68 927.44 53.792C927.328 53.904 927.184 53.96 927.008 53.96H919.112V58.208H926.48C926.656 58.208 926.8 58.264 926.912 58.376C927.024 58.472 927.08 58.608 927.08 58.784V60.272C927.08 60.448 927.024 60.592 926.912 60.704C926.8 60.8 926.656 60.848 926.48 60.848H919.112V65.24H927.2C927.376 65.24 927.52 65.296 927.632 65.408C927.744 65.52 927.8 65.664 927.8 65.84V67.424C927.8 67.584 927.744 67.72 927.632 67.832C927.52 67.944 927.376 68 927.2 68H916.448ZM930.13 68C929.97 68 929.834 67.944 929.722 67.832C929.61 67.72 929.554 67.584 929.554 67.424V56.096C929.554 55.936 929.61 55.8 929.722 55.688C929.834 55.576 929.97 55.52 930.13 55.52H932.098C932.258 55.52 932.394 55.576 932.506 55.688C932.618 55.8 932.674 55.936 932.674 56.096V57.08C933.09 56.568 933.618 56.144 934.258 55.808C934.914 55.456 935.722 55.28 936.682 55.28C937.658 55.28 938.506 55.504 939.226 55.952C939.946 56.384 940.498 57 940.882 57.8C941.282 58.6 941.482 59.56 941.482 60.68V67.424C941.482 67.584 941.426 67.72 941.314 67.832C941.202 67.944 941.066 68 940.906 68H938.794C938.634 68 938.498 67.944 938.386 67.832C938.274 67.72 938.218 67.584 938.218 67.424V60.824C938.218 59.896 937.986 59.168 937.522 58.64C937.074 58.112 936.418 57.848 935.554 57.848C934.722 57.848 934.058 58.112 933.562 58.64C933.066 59.168 932.818 59.896 932.818 60.824V67.424C932.818 67.584 932.762 67.72 932.65 67.832C932.538 67.944 932.402 68 932.242 68H930.13ZM949.07 68C948.11 68 947.302 67.832 946.646 67.496C945.99 67.16 945.502 66.664 945.182 66.008C944.862 65.336 944.702 64.504 944.702 63.512V58.064H942.806C942.646 58.064 942.51 58.008 942.398 57.896C942.286 57.784 942.23 57.648 942.23 57.488V56.096C942.23 55.936 942.286 55.8 942.398 55.688C942.51 55.576 942.646 55.52 942.806 55.52H944.702V51.536C944.702 51.376 944.75 51.24 944.846 51.128C944.958 51.016 945.102 50.96 945.278 50.96H947.222C947.382 50.96 947.518 51.016 947.63 51.128C947.742 51.24 947.798 51.376 947.798 51.536V55.52H950.798C950.958 55.52 951.094 55.576 951.206 55.688C951.318 55.8 951.374 55.936 951.374 56.096V57.488C951.374 57.648 951.318 57.784 951.206 57.896C951.094 58.008 950.958 58.064 950.798 58.064H947.798V63.272C947.798 63.928 947.91 64.44 948.134 64.808C948.374 65.176 948.782 65.36 949.358 65.36H951.014C951.174 65.36 951.31 65.416 951.422 65.528C951.534 65.64 951.59 65.776 951.59 65.936V67.424C951.59 67.584 951.534 67.72 951.422 67.832C951.31 67.944 951.174 68 951.014 68H949.07ZM958.135 68.24C956.359 68.24 954.951 67.728 953.911 66.704C952.871 65.68 952.311 64.224 952.231 62.336C952.215 62.176 952.207 61.976 952.207 61.736C952.207 61.48 952.215 61.28 952.231 61.136C952.295 59.936 952.567 58.896 953.047 58.016C953.543 57.136 954.223 56.464 955.087 56C955.951 55.52 956.967 55.28 958.135 55.28C959.431 55.28 960.519 55.552 961.399 56.096C962.279 56.624 962.943 57.368 963.391 58.328C963.839 59.272 964.063 60.368 964.063 61.616V62.12C964.063 62.28 964.007 62.416 963.895 62.528C963.783 62.64 963.639 62.696 963.463 62.696H955.495C955.495 62.696 955.495 62.72 955.495 62.768C955.495 62.816 955.495 62.856 955.495 62.888C955.511 63.448 955.615 63.968 955.807 64.448C956.015 64.912 956.311 65.288 956.695 65.576C957.095 65.864 957.567 66.008 958.111 66.008C958.559 66.008 958.935 65.944 959.239 65.816C959.543 65.672 959.791 65.512 959.983 65.336C960.175 65.16 960.311 65.016 960.391 64.904C960.535 64.712 960.647 64.6 960.727 64.568C960.823 64.52 960.959 64.496 961.135 64.496H963.199C963.359 64.496 963.487 64.544 963.583 64.64C963.695 64.736 963.743 64.856 963.727 65C963.711 65.256 963.575 65.568 963.319 65.936C963.079 66.304 962.727 66.664 962.263 67.016C961.799 67.368 961.215 67.664 960.511 67.904C959.823 68.128 959.031 68.24 958.135 68.24ZM955.495 60.68H960.799V60.608C960.799 59.984 960.695 59.44 960.487 58.976C960.279 58.512 959.975 58.144 959.575 57.872C959.175 57.6 958.695 57.464 958.135 57.464C957.575 57.464 957.095 57.6 956.695 57.872C956.295 58.144 955.991 58.512 955.783 58.976C955.591 59.44 955.495 59.984 955.495 60.608V60.68ZM966.226 68C966.066 68 965.93 67.944 965.818 67.832C965.706 67.72 965.65 67.584 965.65 67.424V56.12C965.65 55.944 965.706 55.8 965.818 55.688C965.93 55.576 966.066 55.52 966.226 55.52H968.17C968.33 55.52 968.466 55.576 968.578 55.688C968.706 55.8 968.77 55.944 968.77 56.12V57.104C969.138 56.592 969.61 56.2 970.186 55.928C970.778 55.656 971.458 55.52 972.226 55.52H973.21C973.386 55.52 973.522 55.576 973.618 55.688C973.73 55.8 973.786 55.936 973.786 56.096V57.824C973.786 57.984 973.73 58.12 973.618 58.232C973.522 58.344 973.386 58.4 973.21 58.4H971.338C970.57 58.4 969.97 58.616 969.538 59.048C969.122 59.48 968.914 60.072 968.914 60.824V67.424C968.914 67.584 968.858 67.72 968.746 67.832C968.634 67.944 968.49 68 968.314 68H966.226Z" fill="#A5A5A5"/>
<line x1="987.052" y1="103.188" x2="940.027" y2="104.043" stroke="#A5A5A5" stroke-width="3"/>
<line x1="985.525" y1="103.405" x2="985.525" y2="94" stroke="#A5A5A5" stroke-width="3"/>
<path d="M936 103.992L940.489 101.401V106.584L936 103.992Z" fill="#A5A5A5"/>
</svg>
