<svg width="100" height="100" viewBox="0 0 100 100" fill="none" xmlns="http://www.w3.org/2000/svg">
<circle cx="50" cy="50" r="49.5" stroke="#D8737F"/>
<path d="M50 56.25C50.3542 56.25 50.6513 56.13 50.8913 55.89C51.1313 55.65 51.2508 55.3533 51.25 55C51.25 54.6458 51.13 54.3487 50.89 54.1087C50.65 53.8687 50.3533 53.7492 50 53.75C49.6458 53.75 49.3487 53.87 49.1087 54.11C48.8687 54.35 48.7492 54.6467 48.75 55C48.75 55.3542 48.87 55.6512 49.11 55.8912C49.35 56.1312 49.6467 56.2508 50 56.25ZM48.75 51.25H51.25V43.75H48.75V51.25ZM50 62.5C48.2708 62.5 46.6458 62.1717 45.125 61.515C43.6042 60.8583 42.2813 59.9679 41.1563 58.8438C40.0313 57.7188 39.1408 56.3958 38.485 54.875C37.8292 53.3542 37.5008 51.7292 37.5 50C37.5 48.2708 37.8283 46.6458 38.485 45.125C39.1417 43.6042 40.0321 42.2813 41.1563 41.1563C42.2813 40.0313 43.6042 39.1408 45.125 38.485C46.6458 37.8292 48.2708 37.5008 50 37.5C51.7292 37.5 53.3542 37.8283 54.875 38.485C56.3958 39.1417 57.7188 40.0321 58.8438 41.1563C59.9688 42.2813 60.8596 43.6042 61.5162 45.125C62.1729 46.6458 62.5008 48.2708 62.5 50C62.5 51.7292 62.1717 53.3542 61.515 54.875C60.8583 56.3958 59.9679 57.7188 58.8438 58.8438C57.7188 59.9688 56.3958 60.8596 54.875 61.5162C53.3542 62.1729 51.7292 62.5008 50 62.5ZM50 60C52.7917 60 55.1562 59.0312 57.0938 57.0938C59.0312 55.1562 60 52.7917 60 50C60 47.2083 59.0312 44.8438 57.0938 42.9062C55.1562 40.9688 52.7917 40 50 40C47.2083 40 44.8438 40.9688 42.9062 42.9062C40.9688 44.8438 40 47.2083 40 50C40 52.7917 40.9688 55.1562 42.9062 57.0938C44.8438 59.0312 47.2083 60 50 60Z" fill="#D8737F"/>
</svg>
