<svg width="100" height="100" viewBox="0 0 140 140" fill="none" xmlns="http://www.w3.org/2000/svg">
<path d="M70.0598 5.02441C33.8785 5.02441 4.49414 34.3998 4.49414 70.5811C4.49414 106.762 33.8785 136.146 70.0598 136.146C106.241 136.146 135.625 106.763 135.625 70.5814C135.625 34.4001 106.241 5.02441 70.0598 5.02441ZM70.0598 9.91211C98.1618 9.91211 121.765 28.9609 128.678 54.8669L106.991 32.5899L105.085 30.6335L103.257 32.6761L82.1419 56.3115C79.0332 53.5339 75.8915 50.7936 72.7173 48.0911L70.9227 46.553L69.2479 48.2363C64.1362 53.3827 59.0829 58.587 54.0891 63.848L33.1884 41.0501L31.3085 38.9993L29.4286 41.0501L9.96316 62.1904C14.0445 32.632 39.37 9.91211 70.0598 9.91211ZM98.0187 50.184L96.9674 59.8571L102.864 51.1071L105.803 55.6703L108.529 53.3542L115.963 60.6862L114.023 51.2269L119.355 52.611L130.071 63.6169L130.301 63.3949C130.584 65.7798 130.727 68.1792 130.729 70.5808C130.729 80.707 128.251 90.2456 123.876 98.6342C111.229 84.0107 98.5793 71.2587 85.9361 59.7286L88.9439 56.3621L98.0193 50.184H98.0187ZM37.8188 56.4047L45.0479 61.5404L50.5768 67.5648C39.7842 79.0557 29.0764 91.0356 18.8745 103.206C12.8643 93.7877 9.38129 82.594 9.38129 70.5811V70.3678L13.8246 65.5394L24.0102 60.0196L19.3106 74.8024L30.7439 60.7969L38.212 69.7438L37.8188 56.405V56.4047ZM76.476 73.2641L91.0111 89.9268L88.9089 75.0072L105.632 86.1329C110.952 91.7199 116.126 97.4439 121.149 103.299L121.201 103.248C110.428 120.098 91.5651 131.258 70.0598 131.258C50.4379 131.258 33.0137 121.964 21.9258 107.538C27.158 101.273 32.5283 95.0565 37.982 88.9274L53.3369 79.6814L45.3219 100.668L62.1465 80.6042L63.8555 89.4062L69.1963 79.3483L82.2786 98.3522L76.4763 73.2643L76.476 73.2641Z" fill="#FAB849"/>
</svg>
