<svg width="503" height="537" viewBox="0 0 503 537" fill="none" xmlns="http://www.w3.org/2000/svg">
<path d="M23.6699 419.542L23.5391 419.461L190.767 110.246L190.837 110.289C194.519 102.223 202.205 96.6113 211.178 96.6113C215.547 96.6168 219.821 97.97 223.486 100.508C227.151 103.046 230.051 106.661 231.837 110.917L343.125 316.695L370.373 266.314L370.408 266.335C371.381 264.178 372.903 262.356 374.801 261.08C376.698 259.803 378.894 259.124 381.137 259.118C385.986 259.118 390.146 262.222 392.022 266.647L471.456 413.538H471.813V414.193L479.504 428.413C480.43 429.692 480.934 431.263 480.938 432.881C480.938 436.983 477.824 440.307 473.986 440.307C473.221 440.307 472.502 440.146 471.813 439.899V440.388H34.2027V440.119C30.9045 439.849 27.823 438.261 25.5732 435.672C23.3234 433.083 22.0708 429.684 22.0653 426.152C22.0768 423.84 22.6284 421.568 23.6699 419.542Z" fill="black" fill-opacity="0.3"/>
</svg>
