<svg width="100" height="100" viewBox="0 0 100 100" fill="none" xmlns="http://www.w3.org/2000/svg">
<circle cx="50" cy="50" r="49.5" stroke="#FAB849"/>
<g clip-path="url(#clip0_201_1137)">
<path d="M49.9998 36.6665C47.3628 36.6665 44.7849 37.4485 42.5922 38.9136C40.3996 40.3787 38.6906 42.461 37.6814 44.8974C36.6723 47.3337 36.4082 50.0146 36.9227 52.601C37.4372 55.1875 38.7071 57.5632 40.5718 59.4279C42.4365 61.2926 44.8122 62.5625 47.3986 63.077C49.9851 63.5914 52.6659 63.3274 55.1023 62.3182C57.5386 61.3091 59.621 59.6001 61.0861 57.4074C62.5512 55.2148 63.3332 52.6369 63.3332 49.9998C63.3332 46.4636 61.9284 43.0722 59.4279 40.5717C56.9274 38.0713 53.5361 36.6665 49.9998 36.6665ZM49.9998 61.6665C47.6924 61.6665 45.4368 60.9823 43.5182 59.7003C41.5996 58.4184 40.1043 56.5963 39.2212 54.4645C38.3382 52.3327 38.1072 49.9869 38.5573 47.7238C39.0075 45.4607 40.1187 43.3819 41.7503 41.7503C43.3819 40.1186 45.4607 39.0075 47.7238 38.5573C49.9869 38.1072 52.3327 38.3382 54.4645 39.2212C56.5963 40.1043 58.4184 41.5996 59.7003 43.5182C60.9823 45.4368 61.6665 47.6924 61.6665 49.9998C61.6665 53.094 60.4373 56.0615 58.2494 58.2494C56.0615 60.4373 53.094 61.6665 49.9998 61.6665Z" fill="#FAB849"/>
<path d="M58.3334 45.0831C58.1773 44.9279 57.9661 44.8408 57.7459 44.8408C57.5258 44.8408 57.3146 44.9279 57.1584 45.0831L47.9084 54.2915L42.9084 49.2915C42.7559 49.1268 42.5443 49.0295 42.32 49.0209C42.0958 49.0123 41.8773 49.0931 41.7126 49.2456C41.548 49.3981 41.4506 49.6098 41.442 49.8341C41.4334 50.0583 41.5143 50.2768 41.6668 50.4415L47.9084 56.6665L58.3334 46.2665C58.4116 46.189 58.4735 46.0968 58.5159 45.9953C58.5582 45.8937 58.5799 45.7848 58.5799 45.6748C58.5799 45.5648 58.5582 45.4559 58.5159 45.3543C58.4735 45.2528 58.4116 45.1606 58.3334 45.0831Z" fill="#FAB849"/>
</g>
<defs>
<clipPath id="clip0_201_1137">
<rect width="30" height="30" fill="white" transform="translate(35 35)"/>
</clipPath>
</defs>
</svg>
