<svg width="30" height="30" viewBox="0 0 30 30" fill="none" xmlns="http://www.w3.org/2000/svg">
<path fill-rule="evenodd" clip-rule="evenodd" d="M18.7762 4.17907C19.4125 4.07032 20.1237 4.03407 20.7937 4.14782C21.9872 4.34941 23.093 4.90361 23.9687 5.73907C24.5387 5.75157 25.1 5.63907 25.5962 5.47907C26.0759 5.32266 26.5363 5.11258 26.9687 4.85282L26.98 4.84532C27.16 4.72539 27.3759 4.67139 27.5912 4.69248C27.8065 4.71356 28.0078 4.80843 28.1611 4.96101C28.3144 5.11358 28.4103 5.31448 28.4324 5.52964C28.4545 5.74481 28.4016 5.961 28.2825 6.14157C28.0237 6.53532 27.6625 7.23782 27.2587 8.02532L27.065 8.40158C26.8337 8.85158 26.5962 9.30657 26.375 9.69657C26.2362 9.94157 26.0875 10.1903 25.9375 10.4053V10.7478C25.9529 12.7961 25.5601 14.827 24.7822 16.7219C24.0042 18.6167 22.8567 20.3377 21.4065 21.7843C19.9563 23.2309 18.2324 24.3742 16.3356 25.1474C14.4388 25.9206 12.407 26.3083 10.3587 26.2878C7.39055 26.2905 4.48482 25.4354 1.99125 23.8253C1.81302 23.71 1.67918 23.5377 1.61164 23.3365C1.5441 23.1352 1.54684 22.917 1.61943 22.7176C1.69202 22.5181 1.83015 22.3491 2.01123 22.2384C2.1923 22.1276 2.40561 22.0816 2.61625 22.1078C4.33858 22.3137 6.08422 22.0358 7.6575 21.3053C6.88991 20.9564 6.20341 20.4514 5.64171 19.8226C5.08001 19.1937 4.65543 18.4548 4.395 17.6528C4.34537 17.4993 4.33622 17.3356 4.36841 17.1775C4.4006 17.0193 4.47305 16.8722 4.57875 16.7503L4.59125 16.7378C3.95673 16.1725 3.4482 15.4801 3.09869 14.7055C2.74918 13.9308 2.56649 13.0914 2.5625 12.2416V12.1766C2.56241 11.9708 2.63004 11.7706 2.75497 11.6071C2.87989 11.4435 3.05517 11.3256 3.25375 11.2716C2.83047 10.427 2.61085 9.49503 2.6125 8.55032C2.61179 7.47929 2.89194 6.42679 3.425 5.49782C3.50073 5.36595 3.60741 5.25448 3.73583 5.17303C3.86424 5.09158 4.01055 5.04259 4.16212 5.03029C4.31369 5.01798 4.46598 5.04274 4.60586 5.10241C4.74573 5.16209 4.86899 5.25489 4.965 5.37282C7.15149 8.06649 10.284 9.82365 13.7225 10.2853C13.6926 9.16056 13.9764 8.04967 14.542 7.07699C15.1076 6.10432 15.9327 5.30823 16.925 4.77782C17.4275 4.51032 18.0925 4.29657 18.7775 4.17907H18.7762ZM4.67875 13.6141C4.92148 14.2972 5.33742 14.9056 5.88586 15.3798C6.4343 15.854 7.09644 16.1776 7.8075 16.3191C8.01236 16.3599 8.19772 16.4679 8.33417 16.6261C8.47062 16.7843 8.55034 16.9835 8.56068 17.1921C8.57102 17.4007 8.51138 17.6068 8.39124 17.7777C8.27109 17.9486 8.09732 18.0745 7.8975 18.1353C7.5575 18.2391 7.20875 18.3103 6.855 18.3516C7.23906 18.847 7.7292 19.2501 8.28943 19.5313C8.84966 19.8125 9.46577 19.9646 10.0925 19.9766C10.2858 19.9802 10.4733 20.0435 10.6292 20.1579C10.7851 20.2722 10.9019 20.432 10.9635 20.6153C11.0251 20.7985 11.0285 20.9964 10.9733 21.1817C10.918 21.367 10.8069 21.5307 10.655 21.6503C9.35156 22.6759 7.83684 23.3995 6.22 23.7691C7.55858 24.1975 8.95577 24.4147 10.3612 24.4128H10.3725C12.1725 24.4318 13.9583 24.0919 15.6254 23.4129C17.2926 22.7339 18.8077 21.7295 20.0822 20.4583C21.3568 19.1871 22.3652 17.6747 23.0486 16.0093C23.7321 14.344 24.0767 12.5591 24.0625 10.7591V10.0903C24.0623 9.86269 24.1449 9.64276 24.295 9.47157C24.3825 9.37282 24.5325 9.14533 24.745 8.77158C24.945 8.41908 25.1675 7.99407 25.3987 7.54532L25.44 7.46282C24.787 7.60977 24.1147 7.65071 23.4487 7.58407C23.2236 7.55955 23.0149 7.45431 22.8612 7.28782C22.2326 6.60618 21.3955 6.15246 20.4812 5.99782C20.0201 5.9326 19.5515 5.94315 19.0937 6.02907C18.6476 6.09852 18.2144 6.23462 17.8087 6.43282C16.9908 6.86983 16.3411 7.56598 15.9615 8.41206C15.5819 9.25815 15.4939 10.2063 15.7112 11.1078C15.7455 11.2496 15.7461 11.3974 15.7132 11.5394C15.6803 11.6815 15.6147 11.8139 15.5216 11.9262C15.4285 12.0384 15.3105 12.1274 15.177 12.1861C15.0435 12.2447 14.8981 12.2715 14.7525 12.2641C10.912 12.0698 7.28107 10.4538 4.56625 7.73032C4.51351 8.00088 4.48713 8.27592 4.4875 8.55157V8.55407C4.48609 9.24251 4.65495 9.9206 4.97903 10.528C5.30311 11.1354 5.77236 11.6532 6.345 12.0353C6.51316 12.1485 6.6401 12.3131 6.70681 12.5045C6.77352 12.696 6.77639 12.9038 6.715 13.097C6.65361 13.2902 6.53127 13.4583 6.3663 13.576C6.20134 13.6938 6.00264 13.755 5.8 13.7503C5.42275 13.7399 5.04734 13.6951 4.67875 13.6141Z" fill="#FAB849"/>
</svg>
