<svg width="100" height="100" viewBox="0 0 100 100" fill="none" xmlns="http://www.w3.org/2000/svg">
<circle cx="50" cy="50" r="50" fill="#232323"/>
<path d="M33.3334 62.5003C33.3334 60.2902 34.2113 58.1706 35.7742 56.6078C37.337 55.045 39.4566 54.167 41.6667 54.167H58.3334C60.5435 54.167 62.6631 55.045 64.2259 56.6078C65.7887 58.1706 66.6667 60.2902 66.6667 62.5003C66.6667 63.6054 66.2277 64.6652 65.4463 65.4466C64.6649 66.228 63.6051 66.667 62.5 66.667H37.5C36.395 66.667 35.3352 66.228 34.5538 65.4466C33.7724 64.6652 33.3334 63.6054 33.3334 62.5003Z" stroke="#FAB849" stroke-width="1.25" stroke-linejoin="round"/>
<path d="M50 45.8335C53.4518 45.8335 56.25 43.0353 56.25 39.5835C56.25 36.1317 53.4518 33.3335 50 33.3335C46.5482 33.3335 43.75 36.1317 43.75 39.5835C43.75 43.0353 46.5482 45.8335 50 45.8335Z" stroke="#FAB849" stroke-width="1.25"/>
</svg>
