<svg width="100" height="100" viewBox="0 0 150 150" fill="none" xmlns="http://www.w3.org/2000/svg">
<circle cx="75" cy="75" r="75" fill="#475C7A"/>
<path d="M95.0002 78.7144C97.2734 78.7144 99.4536 79.6174 101.061 81.2249C102.669 82.8323 103.572 85.0125 103.572 87.2858V89.3286C103.572 99.5486 91.543 107.286 75.0001 107.286C58.4573 107.286 46.4287 99.9515 46.4287 89.3286V87.2858C46.4287 85.0125 47.3318 82.8323 48.9392 81.2249C50.5467 79.6174 52.7269 78.7144 55.0001 78.7144H95.0002ZM95.0002 83.0001H55.0001C53.9352 83.0001 52.9084 83.3965 52.1198 84.1122C51.3313 84.8279 50.8374 85.8116 50.7344 86.8715L50.7144 87.2858V89.3286C50.7144 96.9686 60.3973 103 75.0001 103C89.0744 103 98.8716 96.9858 99.2716 89.7886L99.2859 89.3286V87.2858C99.2859 86.2209 98.8894 85.1941 98.1737 84.4055C97.458 83.6169 96.4744 83.123 95.4144 83.0201L95.0002 83.0001ZM75.0001 38.7144C77.2514 38.7144 79.4806 39.1578 81.5604 40.0193C83.6403 40.8808 85.5301 42.1435 87.122 43.7354C88.7138 45.3272 89.9766 47.2171 90.8381 49.2969C91.6996 51.3768 92.143 53.606 92.143 55.8572C92.143 58.1084 91.6996 60.3376 90.8381 62.4175C89.9766 64.4974 88.7138 66.3872 87.122 67.979C85.5301 69.5709 83.6403 70.8336 81.5604 71.6951C79.4806 72.5567 77.2514 73.0001 75.0001 73.0001C70.4536 73.0001 66.0932 71.194 62.8783 67.979C59.6634 64.7641 57.8573 60.4038 57.8573 55.8572C57.8573 51.3106 59.6634 46.9503 62.8783 43.7354C66.0932 40.5205 70.4536 38.7144 75.0001 38.7144ZM75.0001 43.0001C71.5902 43.0001 68.32 44.3547 65.9088 46.7658C63.4976 49.177 62.143 52.4473 62.143 55.8572C62.143 59.2671 63.4976 62.5374 65.9088 64.9486C68.32 67.3598 71.5902 68.7144 75.0001 68.7144C78.4101 68.7144 81.6803 67.3598 84.0915 64.9486C86.5027 62.5374 87.8573 59.2671 87.8573 55.8572C87.8573 52.4473 86.5027 49.177 84.0915 46.7658C81.6803 44.3547 78.4101 43.0001 75.0001 43.0001Z" fill="#313945"/>
</svg>
