<svg width="191" height="234" viewBox="0 0 191 234" fill="none" xmlns="http://www.w3.org/2000/svg">
<path d="M14 0H177C184.732 0 191 6.26801 191 14V220C191 227.732 184.732 234 177 234H82C74.268 234 68 227.732 68 220V135C68 127.268 61.732 121 54 121H14C6.26801 121 0 114.732 0 107V14C0 6.26801 6.26802 0 14 0Z" fill="#181717"/>
<path d="M58.448 67C58.288 67 58.152 66.944 58.04 66.832C57.928 66.72 57.872 66.584 57.872 66.424V50.8C57.872 50.624 57.928 50.48 58.04 50.368C58.152 50.256 58.288 50.2 58.448 50.2H69.008C69.184 50.2 69.328 50.256 69.44 50.368C69.552 50.48 69.608 50.624 69.608 50.8V52.384C69.608 52.544 69.552 52.68 69.44 52.792C69.328 52.904 69.184 52.96 69.008 52.96H61.112V57.208H68.48C68.656 57.208 68.8 57.264 68.912 57.376C69.024 57.472 69.08 57.608 69.08 57.784V59.272C69.08 59.448 69.024 59.592 68.912 59.704C68.8 59.8 68.656 59.848 68.48 59.848H61.112V64.24H69.2C69.376 64.24 69.52 64.296 69.632 64.408C69.744 64.52 69.8 64.664 69.8 64.84V66.424C69.8 66.584 69.744 66.72 69.632 66.832C69.52 66.944 69.376 67 69.2 67H58.448ZM72.1297 67C71.9697 67 71.8337 66.944 71.7217 66.832C71.6097 66.72 71.5537 66.584 71.5537 66.424V55.096C71.5537 54.936 71.6097 54.8 71.7217 54.688C71.8337 54.576 71.9697 54.52 72.1297 54.52H74.0977C74.2577 54.52 74.3937 54.576 74.5057 54.688C74.6177 54.8 74.6737 54.936 74.6737 55.096V56.08C75.0897 55.568 75.6177 55.144 76.2577 54.808C76.9137 54.456 77.7217 54.28 78.6817 54.28C79.6577 54.28 80.5057 54.504 81.2257 54.952C81.9457 55.384 82.4977 56 82.8817 56.8C83.2817 57.6 83.4817 58.56 83.4817 59.68V66.424C83.4817 66.584 83.4257 66.72 83.3137 66.832C83.2017 66.944 83.0657 67 82.9057 67H80.7937C80.6337 67 80.4977 66.944 80.3857 66.832C80.2737 66.72 80.2177 66.584 80.2177 66.424V59.824C80.2177 58.896 79.9857 58.168 79.5217 57.64C79.0737 57.112 78.4177 56.848 77.5537 56.848C76.7217 56.848 76.0577 57.112 75.5617 57.64C75.0657 58.168 74.8177 58.896 74.8177 59.824V66.424C74.8177 66.584 74.7617 66.72 74.6497 66.832C74.5377 66.944 74.4017 67 74.2417 67H72.1297ZM91.0696 67C90.1096 67 89.3016 66.832 88.6456 66.496C87.9896 66.16 87.5016 65.664 87.1816 65.008C86.8616 64.336 86.7016 63.504 86.7016 62.512V57.064H84.8056C84.6456 57.064 84.5096 57.008 84.3976 56.896C84.2856 56.784 84.2296 56.648 84.2296 56.488V55.096C84.2296 54.936 84.2856 54.8 84.3976 54.688C84.5096 54.576 84.6456 54.52 84.8056 54.52H86.7016V50.536C86.7016 50.376 86.7496 50.24 86.8456 50.128C86.9576 50.016 87.1016 49.96 87.2776 49.96H89.2216C89.3816 49.96 89.5176 50.016 89.6296 50.128C89.7416 50.24 89.7976 50.376 89.7976 50.536V54.52H92.7976C92.9576 54.52 93.0936 54.576 93.2056 54.688C93.3176 54.8 93.3736 54.936 93.3736 55.096V56.488C93.3736 56.648 93.3176 56.784 93.2056 56.896C93.0936 57.008 92.9576 57.064 92.7976 57.064H89.7976V62.272C89.7976 62.928 89.9096 63.44 90.1336 63.808C90.3736 64.176 90.7816 64.36 91.3576 64.36H93.0136C93.1736 64.36 93.3096 64.416 93.4216 64.528C93.5336 64.64 93.5896 64.776 93.5896 64.936V66.424C93.5896 66.584 93.5336 66.72 93.4216 66.832C93.3096 66.944 93.1736 67 93.0136 67H91.0696ZM100.135 67.24C98.3587 67.24 96.9507 66.728 95.9107 65.704C94.8707 64.68 94.3107 63.224 94.2307 61.336C94.2147 61.176 94.2067 60.976 94.2067 60.736C94.2067 60.48 94.2147 60.28 94.2307 60.136C94.2947 58.936 94.5667 57.896 95.0467 57.016C95.5427 56.136 96.2227 55.464 97.0867 55C97.9507 54.52 98.9667 54.28 100.135 54.28C101.431 54.28 102.519 54.552 103.399 55.096C104.279 55.624 104.943 56.368 105.391 57.328C105.839 58.272 106.063 59.368 106.063 60.616V61.12C106.063 61.28 106.007 61.416 105.895 61.528C105.783 61.64 105.639 61.696 105.463 61.696H97.4947C97.4947 61.696 97.4947 61.72 97.4947 61.768C97.4947 61.816 97.4947 61.856 97.4947 61.888C97.5107 62.448 97.6147 62.968 97.8067 63.448C98.0147 63.912 98.3107 64.288 98.6947 64.576C99.0947 64.864 99.5667 65.008 100.111 65.008C100.559 65.008 100.935 64.944 101.239 64.816C101.543 64.672 101.791 64.512 101.983 64.336C102.175 64.16 102.311 64.016 102.391 63.904C102.535 63.712 102.647 63.6 102.727 63.568C102.823 63.52 102.959 63.496 103.135 63.496H105.199C105.359 63.496 105.487 63.544 105.583 63.64C105.695 63.736 105.743 63.856 105.727 64C105.711 64.256 105.575 64.568 105.319 64.936C105.079 65.304 104.727 65.664 104.263 66.016C103.799 66.368 103.215 66.664 102.511 66.904C101.823 67.128 101.031 67.24 100.135 67.24ZM97.4947 59.68H102.799V59.608C102.799 58.984 102.695 58.44 102.487 57.976C102.279 57.512 101.975 57.144 101.575 56.872C101.175 56.6 100.695 56.464 100.135 56.464C99.5747 56.464 99.0947 56.6 98.6947 56.872C98.2947 57.144 97.9907 57.512 97.7827 57.976C97.5907 58.44 97.4947 58.984 97.4947 59.608V59.68ZM108.226 67C108.066 67 107.93 66.944 107.818 66.832C107.706 66.72 107.65 66.584 107.65 66.424V55.12C107.65 54.944 107.706 54.8 107.818 54.688C107.93 54.576 108.066 54.52 108.226 54.52H110.17C110.33 54.52 110.466 54.576 110.578 54.688C110.706 54.8 110.77 54.944 110.77 55.12V56.104C111.138 55.592 111.61 55.2 112.186 54.928C112.778 54.656 113.458 54.52 114.226 54.52H115.21C115.386 54.52 115.522 54.576 115.618 54.688C115.73 54.8 115.786 54.936 115.786 55.096V56.824C115.786 56.984 115.73 57.12 115.618 57.232C115.522 57.344 115.386 57.4 115.21 57.4H113.338C112.57 57.4 111.97 57.616 111.538 58.048C111.122 58.48 110.914 59.072 110.914 59.824V66.424C110.914 66.584 110.858 66.72 110.746 66.832C110.634 66.944 110.49 67 110.314 67H108.226Z" fill="#A5A5A5"/>
<line x1="118.052" y1="96.1885" x2="71.0272" y2="97.0435" stroke="#A5A5A5" stroke-width="3"/>
<line x1="116.525" y1="96.405" x2="116.525" y2="87" stroke="#A5A5A5" stroke-width="3"/>
<path d="M67 96.9924L71.4888 94.4008V99.5839L67 96.9924Z" fill="#A5A5A5"/>
</svg>
