<svg width="140" height="72" viewBox="0 0 140 72" fill="none" xmlns="http://www.w3.org/2000/svg">
<rect width="140" height="72" fill="#FDFDFD"/>
<g clip-path="url(#clip0_99_688)">
<path d="M88.4913 24.4484C84.8924 26.0653 87.1072 30.5968 84.2443 31.3052C81.3814 32.0127 80.2299 29.6026 78.2507 31.4731C76.2714 33.3444 78.3352 36.1234 81.5405 37.6455C87.9514 40.6889 94.422 37.4237 95.1873 33.2605C96.1271 28.1442 92.0902 22.8315 88.4913 24.4484Z" stroke="black" stroke-width="2.5"/>
<path d="M97.527 31.403C97.4936 32.0925 98.305 32.6921 99.3394 32.7422C100.374 32.7922 101.239 32.2738 101.273 31.5842C101.306 30.8947 100.495 30.2951 99.4602 30.2451C98.4259 30.195 97.5603 30.7134 97.527 31.403Z" fill="black"/>
<path d="M97.0772 28.2174C97.2234 28.8921 98.1624 29.2612 99.1744 29.0419C100.186 28.8225 100.888 28.0977 100.742 27.423C100.596 26.7484 99.6569 26.3792 98.6448 26.5986C97.6328 26.818 96.9309 27.5427 97.0772 28.2174Z" fill="black"/>
<path d="M95.5355 25.4284C95.8934 26.0187 96.9014 26.062 97.7869 25.5252C98.6724 24.9883 99.1 24.0745 98.7421 23.4842C98.3842 22.8938 97.3762 22.8505 96.4907 23.3874C95.6052 23.9243 95.1775 24.8381 95.5355 25.4284Z" fill="black"/>
<path d="M93.036 21.2838C93.9067 21.8443 95.2184 21.3576 95.9658 20.1966C96.7131 19.0356 96.6131 17.6401 95.7424 17.0796C94.8716 16.5191 93.5599 17.0058 92.8126 18.1668C92.0653 19.3278 92.1653 20.7233 93.036 21.2838Z" stroke="black" stroke-width="2.5"/>
<path d="M97.0926 34.5828C96.94 35.2561 97.635 35.9874 98.6449 36.2163C99.6548 36.4452 100.597 36.085 100.75 35.4117C100.902 34.7384 100.207 34.0071 99.1975 33.7782C98.1876 33.5493 97.2452 33.9095 97.0926 34.5828Z" fill="black"/>
</g>
<g clip-path="url(#clip1_99_688)">
<path d="M51.4536 36.9565C48.4203 39.4751 45.345 35.5651 43.4487 37.8154C41.5533 40.066 43.2005 42.1219 40.6549 43.0879C38.1085 44.0536 36.5337 41.0268 36.5864 37.5188C36.6926 30.5029 42.4666 26.1277 46.5271 27.2231C51.5167 28.5698 54.4869 34.438 51.4536 36.9565Z" stroke="black" stroke-width="2.5"/>
<path d="M49.2201 25.9301C48.5887 25.6654 48.4105 24.6859 48.822 23.7422C49.2334 22.7986 50.0788 22.2482 50.7101 22.5129C51.3415 22.7776 51.5197 23.7571 51.1082 24.7008C50.6968 25.6444 49.8514 26.1948 49.2201 25.9301Z" fill="black"/>
<path d="M51.8703 27.6914C51.3315 27.2729 51.4156 26.278 52.0582 25.4693C52.7007 24.6606 53.6584 24.3443 54.1972 24.7628C54.736 25.1812 54.652 26.1761 54.0094 26.9848C53.3669 27.7935 52.4092 28.1099 51.8703 27.6914Z" fill="black"/>
<path d="M53.6844 30.2571C53.3144 29.6859 53.7202 28.7686 54.5909 28.2083C55.4616 27.6481 56.4674 27.6569 56.8374 28.2282C57.2074 28.7994 56.8015 29.7166 55.9308 30.2769C55.0601 30.8372 54.0544 30.8283 53.6844 30.2571Z" fill="black"/>
<path d="M56.2882 34.2553C56.171 33.2396 57.1849 32.2778 58.5527 32.1072C59.9205 31.9366 61.1243 32.6217 61.2415 33.6374C61.3586 34.6532 60.3448 35.6149 58.977 35.7855C57.6091 35.9561 56.4053 35.271 56.2882 34.2553Z" stroke="black" stroke-width="2.5"/>
<path d="M46.1853 24.9596C45.516 24.8082 45.1685 23.8762 45.4093 22.878C45.6501 21.8797 46.3879 21.1933 47.0573 21.3447C47.7267 21.4961 48.0741 22.4281 47.8333 23.4264C47.5925 24.4246 46.8547 25.1111 46.1853 24.9596Z" fill="black"/>
</g>
<defs>
<clipPath id="clip0_99_688">
<rect width="30" height="30" fill="white" transform="translate(93.0764 9.18994) rotate(52.7702)"/>
</clipPath>
<clipPath id="clip1_99_688">
<rect width="29.5708" height="30" fill="white" transform="matrix(-0.451599 -0.892221 -0.892221 0.451599 67.1208 39.3838)"/>
</clipPath>
</defs>
</svg>
