<svg width="1361" height="691" viewBox="0 0 1361 691" fill="none" xmlns="http://www.w3.org/2000/svg">
<rect x="0.5" y="0.5" width="1360" height="690" stroke="#89DFCA"/>
<rect x="1261.5" y="0.5" width="99" height="99" stroke="#89DFCA"/>
<rect x="0.5" y="0.5" width="99" height="99" stroke="#89DFCA"/>
<rect x="0.5" y="591.5" width="99" height="99" stroke="#89DFCA"/>
<rect x="1261.5" y="591.5" width="99" height="99" stroke="#89DFCA"/>
<path d="M1309.33 633.448L1316.63 620.948C1319.78 621.781 1322.59 623.309 1325.04 625.531C1327.49 627.753 1329.27 630.392 1330.38 633.448H1309.33ZM1303.55 638.656L1296.42 626.156C1298.29 624.316 1300.47 622.857 1302.95 621.781C1305.44 620.705 1308.12 620.167 1311 620.167C1311.45 620.167 1311.97 620.193 1312.56 620.246C1313.15 620.298 1313.69 620.359 1314.18 620.427L1303.55 638.656ZM1290.84 646.208C1290.64 645.375 1290.47 644.524 1290.35 643.656C1290.23 642.788 1290.17 641.903 1290.17 641C1290.17 638.535 1290.57 636.208 1291.36 634.021C1292.16 631.833 1293.29 629.837 1294.75 628.031L1305.27 646.208H1290.84ZM1305.43 661.052C1302.27 660.219 1299.45 658.691 1296.99 656.469C1294.52 654.246 1292.74 651.607 1291.63 648.552H1312.61L1305.43 661.052ZM1311 661.833C1310.48 661.833 1309.95 661.798 1309.41 661.729C1308.87 661.66 1308.36 661.59 1307.88 661.521L1318.45 643.344L1325.58 655.844C1323.71 657.684 1321.53 659.142 1319.05 660.219C1316.56 661.295 1313.88 661.833 1311 661.833ZM1327.25 653.969L1316.73 635.791H1331.16C1331.36 636.625 1331.53 637.476 1331.65 638.344C1331.77 639.212 1331.83 640.097 1331.83 641C1331.83 643.43 1331.41 645.757 1330.56 647.979C1329.7 650.201 1328.6 652.198 1327.25 653.969Z" fill="#475C7A"/>
<path d="M1318.38 36.5415L1314.69 40.2082L1311 36.5415L1307.31 40.2082L1303.63 36.5415L1311 29.1665L1318.38 36.5415ZM1324.46 57.3748L1320.79 53.6873L1324.46 49.9998L1320.79 46.3123L1324.46 42.6248L1331.83 49.9998L1324.46 57.3748ZM1303.63 63.4582L1307.31 59.7915L1311 63.4582L1314.69 59.7915L1318.38 63.4582L1311 70.8332L1303.63 63.4582ZM1297.54 42.6248L1301.21 46.3123L1297.54 49.9998L1301.21 53.6873L1297.54 57.3748L1290.17 49.9998L1297.54 42.6248Z" fill="#FAB849" fill-opacity="0.5"/>
<path d="M1311 56.25C1314.45 56.25 1317.25 53.4518 1317.25 50C1317.25 46.5482 1314.45 43.75 1311 43.75C1307.55 43.75 1304.75 46.5482 1304.75 50C1304.75 53.4518 1307.55 56.25 1311 56.25Z" fill="#FAB849" fill-opacity="0.5"/>
<path d="M36.2916 38.2293C35.4791 37.4168 35.4791 36.0835 36.2916 35.271C36.4844 35.0779 36.7133 34.9246 36.9653 34.8201C37.2174 34.7155 37.4875 34.6617 37.7604 34.6617C38.0332 34.6617 38.3034 34.7155 38.5554 34.8201C38.8075 34.9246 39.0364 35.0779 39.2291 35.271L53.2291 46.4793L53.9583 47.0627C55.5833 48.6877 55.5833 51.3335 53.9583 52.9585C52.3333 54.5835 49.6875 54.5835 48.0625 52.9585L47.4791 52.2293L36.2916 38.2293ZM51 66.6668C55.4202 66.6668 59.6595 64.9109 62.7851 61.7853C65.9107 58.6597 67.6666 54.4204 67.6666 50.0002C67.6666 45.396 65.7916 41.2293 62.7916 38.2085L65.7291 35.271C67.6667 37.203 69.2034 39.4988 70.2509 42.0265C71.2985 44.5542 71.8362 47.264 71.8333 50.0002C71.8333 55.5255 69.6384 60.8245 65.7314 64.7316C61.8244 68.6386 56.5253 70.8335 51 70.8335C48.2641 70.8335 45.555 70.2946 43.0274 69.2477C40.4998 68.2007 38.2031 66.6661 36.2686 64.7316C32.3616 60.8245 30.1666 55.5255 30.1666 50.0002H34.3333C34.3333 54.4204 36.0892 58.6597 39.2149 61.7853C42.3405 64.9109 46.5797 66.6668 51 66.6668ZM51 27.0835C52.105 27.0835 53.1648 27.5225 53.9462 28.3039C54.7276 29.0853 55.1666 30.1451 55.1666 31.2502C55.1666 32.3552 54.7276 33.415 53.9462 34.1964C53.1648 34.9778 52.105 35.4168 51 35.4168C49.8949 35.4168 48.8351 34.9778 48.0537 34.1964C47.2723 33.415 46.8333 32.3552 46.8333 31.2502C46.8333 30.1451 47.2723 29.0853 48.0537 28.3039C48.8351 27.5225 49.8949 27.0835 51 27.0835Z" fill="#D8737F"/>
<path d="M51 661.833C46.0347 661.833 41.6423 660.271 37.8229 657.146C34.0034 654.021 31.5902 650.028 30.5833 645.167H34.8541C35.8264 648.847 37.8055 651.851 40.7916 654.177C43.7777 656.503 47.1805 657.667 51 657.667C53.9861 657.667 56.7639 656.928 59.3333 655.452C61.9027 653.976 63.9166 651.936 65.375 649.333H59.3333V645.167H71.8333V657.667H67.6666V653.5C65.6875 656.139 63.2396 658.187 60.3229 659.646C57.4062 661.104 54.2986 661.833 51 661.833ZM51 647.25C49.2639 647.25 47.7882 646.642 46.5729 645.427C45.3576 644.212 44.75 642.736 44.75 641C44.75 639.264 45.3576 637.788 46.5729 636.573C47.7882 635.357 49.2639 634.75 51 634.75C52.7361 634.75 54.2118 635.357 55.4271 636.573C56.6423 637.788 57.25 639.264 57.25 641C57.25 642.736 56.6423 644.212 55.4271 645.427C54.2118 646.642 52.7361 647.25 51 647.25ZM30.1666 636.833V624.333H34.3333V628.5C36.3125 625.861 38.7604 623.812 41.677 622.354C44.5937 620.896 47.7014 620.167 51 620.167C55.9652 620.167 60.3576 621.729 64.1771 624.854C67.9965 627.979 70.4097 631.972 71.4166 636.833H67.1458C66.1736 633.153 64.1944 630.149 61.2083 627.823C58.2222 625.496 54.8194 624.333 51 624.333C48.0139 624.333 45.2361 625.071 42.6666 626.548C40.0972 628.024 38.0833 630.064 36.625 632.667H42.6666V636.833H30.1666Z" fill="#FAB849" fill-opacity="0.5"/>
<path d="M1311 100V591" stroke="#89DFCA" stroke-opacity="0.5"/>
<path d="M50 100L50 591" stroke="#89DFCA" stroke-opacity="0.5"/>
<path d="M251 100H351" stroke="#89DFCA" stroke-opacity="0.5"/>
<path d="M251 200L251 100" stroke="#89DFCA" stroke-opacity="0.5"/>
<path d="M251 591V491" stroke="#89DFCA" stroke-opacity="0.5"/>
<path d="M351 591H251" stroke="#89DFCA" stroke-opacity="0.5"/>
<path d="M1113 100V200" stroke="#89DFCA" stroke-opacity="0.5"/>
<path d="M1013 100L1113 100" stroke="#89DFCA" stroke-opacity="0.5"/>
<path d="M1113 591H1013" stroke="#89DFCA" stroke-opacity="0.5"/>
<path d="M1113 491V591" stroke="#89DFCA" stroke-opacity="0.5"/>
<circle cx="681" cy="345" r="95" stroke="#89DFCA" stroke-opacity="0.38" stroke-width="10"/>
<path d="M681 320V370" stroke="#89DFCA" stroke-opacity="0.5"/>
<path d="M656 345H706" stroke="#89DFCA" stroke-opacity="0.5"/>
</svg>
