<svg width="100" height="100" viewBox="0 0 100 100" fill="none" xmlns="http://www.w3.org/2000/svg">
<circle cx="50" cy="50" r="49.5" stroke="#FCBB6D"/>
<g clip-path="url(#clip0_201_1137)">
<path d="M49.9998 36.667C47.3628 36.667 44.7849 37.449 42.5922 38.9141C40.3996 40.3791 38.6906 42.4615 37.6814 44.8979C36.6723 47.3342 36.4082 50.0151 36.9227 52.6015C37.4372 55.1879 38.7071 57.5637 40.5718 59.4284C42.4365 61.2931 44.8122 62.563 47.3986 63.0775C49.9851 63.5919 52.6659 63.3279 55.1023 62.3187C57.5386 61.3096 59.621 59.6006 61.0861 57.4079C62.5512 55.2153 63.3332 52.6374 63.3332 50.0003C63.3332 46.4641 61.9284 43.0727 59.4279 40.5722C56.9274 38.0718 53.5361 36.667 49.9998 36.667ZM49.9998 61.667C47.6924 61.667 45.4368 60.9828 43.5182 59.7008C41.5996 58.4189 40.1043 56.5968 39.2212 54.465C38.3382 52.3332 38.1072 49.9874 38.5573 47.7243C39.0075 45.4612 40.1187 43.3824 41.7503 41.7507C43.3819 40.1191 45.4607 39.008 47.7238 38.5578C49.9869 38.1077 52.3327 38.3387 54.4645 39.2217C56.5963 40.1048 58.4184 41.6001 59.7003 43.5187C60.9823 45.4372 61.6665 47.6929 61.6665 50.0003C61.6665 53.0945 60.4373 56.062 58.2494 58.2499C56.0615 60.4378 53.094 61.667 49.9998 61.667Z" fill="#FAB849"/>
<path d="M58.3334 45.0831C58.1773 44.9279 57.9661 44.8408 57.7459 44.8408C57.5258 44.8408 57.3146 44.9279 57.1584 45.0831L47.9084 54.2915L42.9084 49.2915C42.7559 49.1268 42.5443 49.0295 42.32 49.0209C42.0958 49.0123 41.8773 49.0931 41.7126 49.2456C41.548 49.3981 41.4506 49.6098 41.442 49.8341C41.4334 50.0583 41.5143 50.2768 41.6668 50.4415L47.9084 56.6665L58.3334 46.2665C58.4116 46.189 58.4735 46.0968 58.5159 45.9953C58.5582 45.8937 58.5799 45.7848 58.5799 45.6748C58.5799 45.5648 58.5582 45.4559 58.5159 45.3543C58.4735 45.2528 58.4116 45.1606 58.3334 45.0831Z" fill="#FAB849"/>
</g>
<defs>
<clipPath id="clip0_201_1137">
<rect width="30" height="30" fill="white" transform="translate(35 35)"/>
</clipPath>
</defs>
</svg>
